/* XPM */
static char *maximize_xpm[] = {
"20 20 2 1",
". c #000",
"  c #c0c0c0",
"                    ",
"                    ",
"                    ",
"                    ",
"                    ",
"    ............    ",
"    ............    ",
"    .          .    ",
"    .          .    ",
"    .          .    ",
"    .          .    ",
"    .          .    ",
"    .          .    ",
"    .          .    ",
"    ............    ",
"                    ",
"                    ",
"                    ",
"                    ",
"                    "};
