/* XPM */
static char *menuButtonA[] = {
/* width height num_colors chars_per_pixel */
"    23    42        7           1",
/* colors */
". c #ffffff",
"# c #000080",
"a c #9999cc",
"b c #666699",
"c c #666699",
"d c #ffffff",
"e c #cccccc",
/* pixels */
"#######################",
"#######################",
"#######################",
"#######################",
"#######################",
"#######################",
"#######################",
"#######################",
"#######################",
"#######################",
"#######################",
"#######################",
"#######################",
"#######################",
"#######################",
"#######################",
"#######################",
"#######################",
"#######################",
"#######################",
"bbbbbbbbbbbbbbbbbbbbbbb",
"#######################",
"##cccccccccccccccc#####",
"#ceeeeeeeeeeeeeeeed####",
"#ceeeeeeeeeeeeeeeed####",
"#ceeeeeeeeeeeeeeeed####",
"#ceeeeeeeeeeeeeeeed####",
"#ceeeeeeeeeeeeeeeed####",
"#ceeeeeeeeeeeeeeeed####",
"#ceeeeeeeeeeeeeeeed####",
"#ceeeeeeeeeeeeeeeed####",
"#ceeeeeeeeeeeeeeeed####",
"#ceeeeeeeeeeeeeeeed####",
"#ceeeeeeeeeeeeeeeed####",
"#ceeeeeeeeeeeeeeeed####",
"#ceeeeeeeeeeeeeeeed####",
"#ceeeeeeeeeeeeeeeed####",
"#ceeeeeeeeeeeeeeeed####",
"#ceeeeeeeeeeeeeeeed####",
"##ddddddddddddddddd####",
"#######################",
"bbbbbbbbbbbbbbbbbbbbbbb",
};
