/* XPM */
static char * desktop_xpm[] = {
"18 18 4 1",
" 	c None",
".	c #020202",
"+	c #ffffff",
"%	c #c0c0c0",
"                  ",
" ................ ",
".++++++++++++++++.",
".++++++++++++++++.",
"..................",
"..................",
".%%%%%%%%%%%%%%%%.",
".%%%%%%%%%%%%%%%%.",
".%%%%%%%%%%%%%%%%.",
".%%%%%%%%%%%%%%%%.",
".%%%%%%%%%%%%%%%%.",
".%%%%%%%%%%%%%%%%.",
".%%%%%%%%%%%%%%%%.",
".%%%..........%%%.",
".%%%%%%%%%%%%%%%%.",
".%%%%%%%%%%%%%%%%.",
" ................ ",
"                  ",
"                  "};
