/* XPM */
static char * icewm_xpm[] = {
"50 20 3 1",
" 	c None",
".	c #c0c0c0",
"%	c #020202",
"..................................................",
"..................................................",
"..................................................",
"..................................................",
"..................................................",
".....%%%....%%%...................................",
".....%%%....%%%...................................",
".....%%%%..%%%%....%%%%%....%%%%%%%...%%...%%.....",
".....%%%%..%%%%...%%%.%%%...%%%.%%%...%%...%%.....",
".....%%.%%%%.%%...%%...%%...%%...%%...%%...%%.....",
".....%%.%%%%.%%...%%%%%%%...%%...%%...%%...%%.....",
".....%%..%%..%%...%%........%%...%%...%%...%%.....",
".....%%......%%...%%%..%%...%%...%%...%%%.%%%.....",
".....%%......%%....%%%%%....%%...%%....%%%%%%.....",
"..................................................",
"..................................................",
"..................................................",
"..................................................",
"..................................................",
".................................................."};
